# File created by Blade
# Date/Time:  Tue Sep 30 19:36:50 2014
#---------------------------------------------------------
:version 1.10
:name HOM
:units
  mass 1.0
  length 1.000000
  angle deg
:documentation
     Acclaim Skeleton File
:root
   axis xyz
   order TX TY TZ RX RY RZ
   position 0.000000 0.000000 0.000000
   orientation 0 0 0
:bonedata
   begin
      id 1
      name Spine_dum
      direction 0.000000 1.000000 0.000000
      length 3.241213
      axis 0.0 0.0 0.0 xyz
   end
   begin
      id 2
      name LeftUpLeg_dum
      direction 1.000000 0.000000 0.000000
      length 3.434019
      axis 0.0 0.0 0.0 xyz
   end
   begin
      id 3
      name RightUpLeg_dum
      direction -1.000000 0.000000 0.000000
      length 3.434019
      axis 0.0 0.0 0.0 xyz
   end
   begin
      id 4
      name Spine
      direction 0.000000 1.000000 0.000000
      length 0.000000
      axis 0.0 0.0 0.0 xyz
      dof rx ry rz
   end
   begin
      id 5
      name Spine_dum1
      direction 0.000000 1.000000 0.000000
      length 18.382958
      axis 0.0 0.0 0.0 xyz
   end
   begin
      id 6
      name Spine_dum2
      direction 0.000000 1.000000 0.000000
      length 12.828261
      axis 0.0 0.0 0.0 xyz
   end
   begin
      id 7
      name Spine_dum3
      direction 0.000000 1.000000 0.000000
      length 12.828261
      axis 0.0 0.0 0.0 xyz
   end
   begin
      id 8
      name Head
      direction 0.000000 1.000000 0.000000
      length 4.527550
      axis 0.0 0.0 0.0 xyz
      dof rx ry rz
   end
   begin
      id 9
      name LeftShoulder
      direction 1.000000 0.000000 0.000000
      length 7.748055
      axis 0.0 0.0 -90.0 xyz
      dof rx ry rz
   end
   begin
      id 10
      name LeftArm
      direction 1.000000 0.000000 0.000000
      length 10.635614
      axis 0.0 0.0 -90.0 xyz
      dof rx ry rz
   end
   begin
      id 11
      name LeftForeArm
      direction 1.000000 0.000000 0.000000
      length 8.346755
      axis 0.0 0.0 -90.0 xyz
      dof ry rz rx
   end
   begin
      id 12
      name LeftHand
      direction 0.000000 0.000000 0.000000
      length 0.000000
      axis 0.0 0.0 -90.0 xyz
      dof rx ry rz
   end
   begin
      id 13
      name LeftHand_dum1
      direction 0.000000 0.000000 0.000000
      length 0.000000
      axis 0.0 0.0 -90.0 xyz
   end
   begin
      id 14
      name LeftHand_dum2
      direction 1.000000 0.000000 0.000000
      length 3.937000
      axis 0.0 0.0 -90.0 xyz
   end
   begin
      id 15
      name LeftHandThumb1
      direction 0.000000 0.000000 1.000000
      length 3.937000
      axis 0.0 0.0 -90.0 xyz
      dof rx rz ry
   end
   begin
      id 16
      name RightShoulder
      direction -1.000000 0.000000 0.000000
      length 7.748055
      axis 0.0 0.0 90.0 xyz
      dof rx ry rz
   end
   begin
      id 17
      name RightArm
      direction -1.000000 0.000000 0.000000
      length 10.635614
      axis 0.0 0.0 90.0 xyz
      dof rx ry rz
   end
   begin
      id 18
      name RightForeArm
      direction -1.000000 0.000000 0.000000
      length 8.346755
      axis 0.0 0.0 90.0 xyz
      dof ry rz rx
   end
   begin
      id 19
      name RightHand
      direction 0.000000 0.000000 0.000000
      length 0.000000
      axis 0.0 0.0 90.0 xyz
      dof rx ry rz
   end
   begin
      id 20
      name RightHand_dum1
      direction 0.000000 0.000000 0.000000
      length 0.000000
      axis 0.0 0.0 90.0 xyz
   end
   begin
      id 21
      name RightHand_dum2
      direction -1.000000 0.000000 0.000000
      length 3.937000
      axis 0.0 0.0 90.0 xyz
   end
   begin
      id 22
      name RightHandThumb1
      direction 0.000000 0.000000 1.000000
      length 3.937000
      axis 0.0 0.0 90.0 xyz
      dof rx rz ry
   end
   begin
      id 23
      name LeftUpLeg
      direction 0.000000 -1.000000 0.000000
      length 15.713025
      axis 0.0 0.0 0.0 xyz
      dof rx ry rz
   end
   begin
      id 24
      name LeftLeg
      direction 0.000000 -1.000000 0.000000
      length 14.435119
      axis 0.0 0.0 0.0 xyz
      dof rx ry rz
   end
   begin
      id 25
      name LeftFoot
      direction 0.000000 -0.258819 0.965926
      length 4.938895
      axis 15.0 0.0 0.0 xyz
      dof rx ry rz
   end
   begin
      id 26
      name LeftToeBase
      direction 0.000000 0.000000 1.000000
      length 2.952750
      axis 0.0 0.0 0.0 xyz
      dof rx ry rz
   end
   begin
      id 27
      name RightUpLeg
      direction 0.000000 -1.000000 0.000000
      length 15.713025
      axis 0.0 0.0 0.0 xyz
      dof rx ry rz
   end
   begin
      id 28
      name RightLeg
      direction 0.000000 -1.000000 0.000000
      length 14.435119
      axis 0.0 0.0 0.0 xyz
      dof rx ry rz
   end
   begin
      id 29
      name RightFoot
      direction 0.000000 -0.258819 0.965926
      length 4.938895
      axis 15.0 0.0 0.0 xyz
      dof rx ry rz
   end
   begin
      id 30
      name RightToeBase
      direction 0.000000 0.000000 1.000000
      length 2.952750
      axis 0.0 0.0 0.0 xyz
      dof rx ry rz
   end
:hierarchy
   begin
      root Spine_dum LeftUpLeg_dum RightUpLeg_dum
      Spine_dum Spine
      LeftUpLeg_dum LeftUpLeg
      RightUpLeg_dum RightUpLeg
      Spine Spine_dum1 Spine_dum2 Spine_dum3
      Spine_dum1 Head
      Spine_dum2 LeftShoulder
      Spine_dum3 RightShoulder
      LeftShoulder LeftArm
      LeftArm LeftForeArm
      LeftForeArm LeftHand
      LeftHand LeftHand_dum1 LeftHand_dum2
      LeftHand_dum1 LeftHandThumb1
      RightShoulder RightArm
      RightArm RightForeArm
      RightForeArm RightHand
      RightHand RightHand_dum1 RightHand_dum2
      RightHand_dum1 RightHandThumb1
      LeftUpLeg LeftLeg
      LeftLeg LeftFoot
      LeftFoot LeftToeBase
      RightUpLeg RightLeg
      RightLeg RightFoot
      RightFoot RightToeBase
   end

# File created by Blade
# Date/Time:  Tue Sep 23 19:06:47 2014
# Frame Rate: 120.000 fps
#------------------------------------------------------
:FULLY-SPECIFIED
:DEGREES
592
root 2.655911 35.014395 -5.444494 52.968139 -12.176490 -46.521539
Spine -45.350029 29.687299 9.377868
Head 3.740155 -5.357055 13.326174
LeftShoulder -19.145825 19.261942 37.465572
LeftArm 40.291617 -74.557082 8.358730
LeftForeArm 100.557753 0.000000 7.213945
LeftHand -16.617735 -0.000000 62.863995
LeftHandThumb1 -26.253704 0.000000 33.147579
RightShoulder -9.046736 -9.286712 -19.358737
RightArm 117.299208 40.323292 153.004866
RightForeArm 53.685601 0.000000 61.523472
RightHand 0.251824 0.000000 24.834216
RightHandThumb1 -24.326973 -0.000000 -32.862282
LeftUpLeg -40.405886 26.549095 32.982961
LeftLeg 24.388812 -0.000000 -0.000000
LeftFoot -12.168281 13.259654 -6.357252
LeftToeBase 0.447905 -0.000000 -0.000000
RightUpLeg -181.935469 -36.003494 54.952907
RightLeg -5.654486 -0.000000 0.000000
RightFoot 29.926692 -22.978411 16.608124
RightToeBase 33.712391 -0.000000 -0.000000
593
root 2.673470 35.034768 -5.459454 52.858634 -12.094649 -46.395017
Spine -45.297474 29.686589 9.375175
Head 3.911948 -5.498892 12.770505
LeftShoulder -19.037339 19.655121 37.232982
LeftArm 39.290773 -74.541199 9.109376
LeftForeArm 100.884710 -0.000000 7.345302
LeftHand -16.592241 -0.000000 62.847494
LeftHandThumb1 -26.253704 0.000000 33.147579
RightShoulder -9.095360 -9.381013 -19.447841
RightArm 117.379294 40.322672 153.179679
RightForeArm 53.830796 -0.000000 61.517292
RightHand 0.278466 -0.000000 24.737827
RightHandThumb1 -24.326973 -0.000000 -32.862282
LeftUpLeg -40.528821 26.172760 33.333915
LeftLeg 24.933755 -0.000000 -0.000000
LeftFoot -12.028146 12.337293 -6.938383
LeftToeBase 0.414663 -0.000000 -0.000000
RightUpLeg -181.922849 -35.950595 55.008292
RightLeg -5.755064 -0.000000 0.000000
RightFoot 29.954431 -23.026991 16.521339
RightToeBase 33.725118 -0.000000 -0.000000
594
root 2.691688 35.050638 -5.473192 52.683867 -11.938129 -46.237254
Spine -45.198298 29.643722 9.429887
Head 4.068205 -5.637102 12.165257
LeftShoulder -19.009879 19.783868 37.110207
LeftArm 39.100365 -74.201248 9.057463
LeftForeArm 100.840824 -0.000000 7.498803
LeftHand -16.426066 -0.000000 62.769362
LeftHandThumb1 -26.253704 0.000000 33.147579
RightShoulder -9.137689 -9.521627 -19.546132
RightArm 117.521633 40.325094 153.386330
RightForeArm 53.997803 -0.000000 61.531970
RightHand 0.321145 -0.000000 24.768528
RightHandThumb1 -24.326973 -0.000000 -32.862282
LeftUpLeg -40.690363 25.738355 33.747073
LeftLeg 25.564382 -0.000000 -0.000000
LeftFoot -11.998068 11.265181 -7.732215
LeftToeBase 0.707217 -0.000000 -0.000000
RightUpLeg -181.971027 -35.956018 55.128643
RightLeg -5.813489 -0.000000 0.000000
RightFoot 30.003241 -22.988306 16.390631
RightToeBase 33.630714 -0.000000 -0.000000
595
root 2.707464 35.061021 -5.487404 52.430086 -11.817054 -46.123158
Spine -44.988058 29.663247 9.512779
Head 4.183304 -5.772832 11.620328
LeftShoulder -19.001810 19.825391 37.007295
LeftArm 39.092566 -73.823087 8.887696
LeftForeArm 100.933507 -0.000000 7.544296
LeftHand -16.253856 0.000000 62.732762
LeftHandThumb1 -26.253704 0.000000 33.147579
RightShoulder -9.187660 -9.579458 -19.619060
RightArm 117.686028 40.371561 153.596029
RightForeArm 54.253114 -0.000000 61.552041
RightHand 0.308811 0.000000 24.941900
RightHandThumb1 -24.326973 -0.000000 -32.862282
LeftUpLeg -40.742303 25.339632 34.221289
LeftLeg 26.206826 -0.000000 -0.000000
LeftFoot -11.921440 10.062176 -8.374600
LeftToeBase 0.855731 -0.000000 -0.000000
RightUpLeg -181.895998 -36.037056 55.162745
RightLeg -5.887642 -0.000000 0.000000
RightFoot 29.977463 -22.942614 16.325732
RightToeBase 33.773591 -0.000000 -0.000000
596
root 2.722754 35.064873 -5.501353 52.115137 -11.709619 -46.016568
Spine -44.691321 29.693488 9.638187
Head 4.270522 -5.897340 11.051791
LeftShoulder -19.014595 19.927570 36.846668
LeftArm 38.776356 -73.453879 9.093143
LeftForeArm 100.836520 -0.000000 7.508194
LeftHand -15.936908 -0.000000 62.570280
LeftHandThumb1 -26.253704 0.000000 33.147579
RightShoulder -9.227640 -9.635165 -19.702925
RightArm 117.813501 40.420198 153.771915
RightForeArm 54.200608 -0.000000 61.677336
RightHand 0.276994 -0.000000 24.942964
RightHandThumb1 -24.326973 -0.000000 -32.862282
LeftUpLeg -40.696382 24.954431 34.716259
LeftLeg 26.794851 -0.000000 -0.000000
LeftFoot -11.993033 8.720706 -9.152780
LeftToeBase 1.398424 -0.000000 -0.000000
RightUpLeg -181.764222 -36.208429 55.143627
RightLeg -5.955891 -0.000000 0.000000
RightFoot 30.044989 -22.850639 16.188722
RightToeBase 33.721553 -0.000000 -0.000000
597
root 2.736811 35.062926 -5.513988 51.855937 -11.618068 -45.874083
Spine -44.505298 29.712695 9.665739
Head 4.397163 -6.019830 10.525880
LeftShoulder -19.073593 19.958190 36.758850
LeftArm 39.024884 -73.034566 8.799333
LeftForeArm 100.959750 0.000000 7.313978
LeftHand -15.920894 -0.000000 62.553129
LeftHandThumb1 -26.253704 0.000000 33.147579
RightShoulder -9.339495 -9.616926 -19.738694
RightArm 117.789022 40.470001 153.787226
RightForeArm 54.144657 -0.000000 61.777198
RightHand 0.228040 0.000000 24.899732
RightHandThumb1 -24.326973 -0.000000 -32.862282
LeftUpLeg -40.642524 24.648648 35.113711
LeftLeg 27.216637 -0.000000 -0.000000
LeftFoot -12.002662 7.254332 -9.723341
LeftToeBase 1.901072 -0.000000 -0.000000
RightUpLeg -181.719744 -36.386698 55.117147
RightLeg -5.985642 -0.000000 0.000000
RightFoot 30.037035 -22.782502 16.243423
RightToeBase 33.749943 -0.000000 -0.000000
598
root 2.747901 35.053939 -5.525048 51.671602 -11.531540 -45.729351
Spine -44.434022 29.763030 9.610287
Head 4.478202 -6.166691 10.072048
LeftShoulder -19.048759 20.084132 36.710402
LeftArm 38.698736 -72.663395 8.965272
LeftForeArm 100.792479 -0.000000 7.278345
LeftHand -15.533152 -0.000000 62.316416
LeftHandThumb1 -26.253704 0.000000 33.147579
RightShoulder -9.508605 -9.710405 -19.777215
RightArm 117.762834 40.390615 153.838680
RightForeArm 54.038548 -0.000000 61.887440
RightHand 0.154237 0.000000 24.912417
RightHandThumb1 -24.326973 -0.000000 -32.862282
LeftUpLeg -40.551774 24.469326 35.425866
LeftLeg 27.448911 -0.000000 -0.000000
LeftFoot -12.068030 5.620999 -10.139193
LeftToeBase 2.431012 -0.000000 -0.000000
RightUpLeg -181.742511 -36.550647 55.113897
RightLeg -5.998761 -0.000000 0.000000
RightFoot 30.007838 -22.725472 16.429546
RightToeBase 33.726814 -0.000000 -0.000000
599
root 2.761204 35.041567 -5.531514 51.498105 -11.471904 -45.571750
Spine -44.426813 29.792944 9.512818
Head 4.663662 -6.346016 9.663655
LeftShoulder -19.126379 19.960914 36.712371
LeftArm 39.252370 -72.040116 8.560512
LeftForeArm 100.990355 0.000000 6.873083
LeftHand -15.653062 -0.000000 62.182038
LeftHandThumb1 -26.253704 0.000000 33.147579
RightShoulder -9.672190 -9.581889 -19.723318
RightArm 117.552789 40.498139 153.589657
RightForeArm 53.937195 -0.000000 61.933730
RightHand 0.121824 -0.000000 24.896111
RightHandThumb1 -24.326973 -0.000000 -32.862282
LeftUpLeg -40.305777 24.350039 35.647375
LeftLeg 27.369929 -0.000000 -0.000000
LeftFoot -12.133693 3.981195 -10.392907
LeftToeBase 3.054581 -0.000000 -0.000000
RightUpLeg -181.767285 -36.689986 55.079046
RightLeg -6.007011 -0.000000 0.000000
RightFoot 30.014718 -22.604152 16.634070
RightToeBase 33.727101 -0.000000 -0.000000
600
root 2.774148 35.024476 -5.538477 51.416569 -11.359599 -45.428702
Spine -44.536560 29.777566 9.451721
Head 4.921642 -6.484103 9.265589
LeftShoulder -19.054936 20.180756 36.689992
LeftArm 38.738925 -71.729302 9.046848
LeftForeArm 101.145275 -0.000000 6.593304
LeftHand -15.653207 -0.000000 62.215820
LeftHandThumb1 -26.253704 0.000000 33.147579
RightShoulder -9.676139 -9.654417 -19.751734
RightArm 117.527850 40.522849 153.592820
RightForeArm 53.929462 -0.000000 62.005492
RightHand 0.074527 -0.000000 24.883784
RightHandThumb1 -24.326973 -0.000000 -32.862282
LeftUpLeg -40.036818 24.293556 35.857207
LeftLeg 27.074641 -0.000000 -0.000000
LeftFoot -12.210139 2.302548 -10.314608
LeftToeBase 3.573693 -0.000000 -0.000000
RightUpLeg -181.865864 -36.719118 55.138496
RightLeg -6.042895 -0.000000 0.000000
RightFoot 30.031112 -22.594407 16.861793
RightToeBase 33.690119 -0.000000 -0.000000
601
root 2.787808 35.003834 -5.540912 51.333116 -11.262983 -45.273672
Spine -44.669211 29.756507 9.361584
Head 5.198041 -6.628031 8.944136
LeftShoulder -19.009434 20.401318 36.640166
LeftArm 38.319858 -71.470924 9.454501
LeftForeArm 100.936706 -0.000000 6.458207
LeftHand -15.302151 -0.000000 61.978217
LeftHandThumb1 -26.253704 0.000000 33.147579
RightShoulder -9.726970 -9.518168 -19.741819
RightArm 117.341370 40.638360 153.401515
RightForeArm 53.947897 -0.000000 62.014383
RightHand 0.042656 -0.000000 24.886893
RightHandThumb1 -24.326973 -0.000000 -32.862282
LeftUpLeg -39.659907 24.214268 36.007001
LeftLeg 26.549662 -0.000000 -0.000000
LeftFoot -12.363134 0.767957 -10.136405
LeftToeBase 4.243359 -0.000000 -0.000000
RightUpLeg -181.963152 -36.663836 55.172477
RightLeg -6.078101 -0.000000 0.000000
RightFoot 30.115374 -22.586844 16.942715
RightToeBase 33.641307 -0.000000 -0.000000
602
root 2.802935 34.981945 -5.544155 51.289263 -11.108468 -45.106945
Spine -44.860993 29.678853 9.300733
Head 5.483097 -6.781209 8.602388
LeftShoulder -19.030863 20.512180 36.605250
LeftArm 38.549253 -71.261028 9.229762
LeftForeArm 100.804613 -0.000000 6.396083
LeftHand -14.870298 -0.000000 61.700117
LeftHandThumb1 -26.253704 0.000000 33.147579
RightShoulder -9.682360 -9.337066 -19.777140
RightArm 117.204700 40.801417 153.315592
RightForeArm 54.044313 -0.000000 62.027327
RightHand -0.011826 -0.000000 24.882112
RightHandThumb1 -24.326973 -0.000000 -32.862282
LeftUpLeg -39.311518 24.040014 36.168616
LeftLeg 25.918250 -0.000000 -0.000000
LeftFoot -12.537658 -0.612902 -10.019921
LeftToeBase 4.924758 -0.000000 -0.000000
RightUpLeg -182.130277 -36.524702 55.286280
RightLeg -6.112693 -0.000000 0.000000
RightFoot 30.162078 -22.608955 16.925944
RightToeBase 33.595272 -0.000000 -0.000000
603
root 2.822974 34.955943 -5.544651 51.216454 -10.879345 -44.914072
Spine -45.028913 29.541939 9.338518
Head 5.811813 -6.929270 8.221584
LeftShoulder -19.013999 20.540903 36.584903
LeftArm 38.943436 -71.070429 8.764140
LeftForeArm 100.974135 0.000000 6.424995
LeftHand -14.805745 0.000000 61.472046
LeftHandThumb1 -26.253704 0.000000 33.147579
RightShoulder -9.626163 -9.344903 -19.843937
RightArm 117.165805 40.753257 153.325261
RightForeArm 54.217005 -0.000000 61.985621
RightHand 0.074225 -0.000000 24.969661
RightHandThumb1 -24.326973 -0.000000 -32.862282
LeftUpLeg -39.011228 23.743641 36.298468
LeftLeg 25.228150 -0.000000 -0.000000
LeftFoot -12.827959 -1.536249 -9.711016
LeftToeBase 5.758420 -0.000000 -0.000000
RightUpLeg -182.326450 -36.369301 55.477106
RightLeg -6.182046 -0.000000 0.000000
RightFoot 30.079808 -22.734917 16.960747
RightToeBase 33.765411 -0.000000 -0.000000
604
root 2.847042 34.930120 -5.550092 51.149704 -10.619746 -44.744401
Spine -45.163119 29.419032 9.429298
Head 6.030424 -7.033520 7.852461
LeftShoulder -18.924667 21.611388 36.084493
LeftArm 37.208322 -71.929676 10.373355
LeftForeArm 100.726415 -0.000000 6.620942
LeftHand -14.401453 0.000000 61.360732
LeftHandThumb1 -26.253704 0.000000 33.147579
RightShoulder -9.505387 -9.350292 -19.939872
RightArm 117.243463 40.711787 153.454009
RightForeArm 54.188508 -0.000000 61.988259
RightHand 0.059095 -0.000000 24.821071
RightHandThumb1 -24.326973 -0.000000 -32.862282
LeftUpLeg -38.810392 23.458078 36.385318
LeftLeg 24.606119 -0.000000 -0.000000
LeftFoot -13.129142 -2.099905 -9.421993
LeftToeBase 6.356888 -0.000000 -0.000000
RightUpLeg -182.457899 -36.182970 55.673706
RightLeg -6.328175 -0.000000 0.000000
RightFoot 30.142942 -22.781813 16.715052
RightToeBase 33.679621 -0.000000 -0.000000
